<?xml version="1.0" encoding="UTF-8" standalone="no"?>
<svg
   xmlns:osb="http://www.openswatchbook.org/uri/2009/osb"
   xmlns:dc="http://purl.org/dc/elements/1.1/"
   xmlns:cc="http://creativecommons.org/ns#"
   xmlns:rdf="http://www.w3.org/1999/02/22-rdf-syntax-ns#"
   xmlns:svg="http://www.w3.org/2000/svg"
   xmlns="http://www.w3.org/2000/svg"
   xmlns:xlink="http://www.w3.org/1999/xlink"
   id="svg8"
   version="1.1"
   viewBox="0 0 287.95523 39.918892"
   height="39.918892"
   width="287.95523">
  <defs
     id="defs2">
    <linearGradient
       id="linearGradient6059"
       osb:paint="solid">
      <stop
         style="stop-color:#008000;stop-opacity:1;"
         offset="0"
         id="stop6057" />
    </linearGradient>
    <linearGradient
       xlink:href="#linearGradient6059"
       id="linearGradient6061"
       x1="25.956991"
       y1="125.72988"
       x2="156.29839"
       y2="125.72988"
       gradientUnits="userSpaceOnUse" />
  </defs>
  <metadata
     id="metadata5">
    <rdf:RDF>
      <cc:Work
         rdf:about="">
        <dc:format>image/svg+xml</dc:format>
        <dc:type
           rdf:resource="http://purl.org/dc/dcmitype/StillImage" />
        <dc:title></dc:title>
      </cc:Work>
    </rdf:RDF>
  </metadata>
  <g
     transform="matrix(2.1972471,0,0,2.1972471,-56.252425,-256.30017)"
     id="layer1">
    <path
       d="m 32.185327,124.94071 v 2.58963 h 1.143594 q 1.096338,0 1.578349,-0.28354 0.47256,-0.28354 0.47256,-1.00183 0,-0.67103 -0.425304,-0.99237 -0.425303,-0.31189 -1.644507,-0.31189 z m 0,-4.79176 v 2.40061 h 1.124692 q 1.143594,0 1.502739,-0.33079 0.340243,-0.3308 0.340243,-0.86951 0,-0.46311 -0.311889,-0.83171 -0.311889,-0.3686 -1.710666,-0.3686 z m 1.209753,10.264 h -7.438088 v -3.14725 h 1.143594 v -6.85211 h -1.143594 v -3.14725 h 8.033513 q 2.362798,0 3.657611,0.27409 1.275911,0.28353 2.003653,1.12469 0.727741,0.86006 0.727741,2.00365 0,1.11524 -0.689937,1.77682 -0.708839,0.68049 -1.720117,0.94512 1.389326,0.41586 2.13597,1.28537 0.756095,0.88841 0.756095,1.9942 0,1.32316 -0.850607,2.24938 -0.850607,0.91677 -2.334445,1.2003 -1.464934,0.29299 -4.281389,0.29299 z"
       style="font-style:normal;font-variant:normal;font-weight:normal;font-stretch:normal;font-size:19.35604095px;line-height:1.25;font-family:'Rockwell Extra Bold';-inkscape-font-specification:'Rockwell Extra Bold, ';letter-spacing:0px;word-spacing:0px;fill:#000000;fill-opacity:1;stroke:#ffff00;stroke-width:0.71134466;stroke-linecap:round;stroke-linejoin:bevel;stroke-miterlimit:4;stroke-dasharray:none;stroke-opacity:1;paint-order:normal"
       id="path817" />
    <path
       d="M 54.830383,130.41295 H 42.317005 v -3.14725 h 1.181399 v -6.85211 h -1.181399 v -3.14725 h 7.513697 v 3.14725 h -1.247557 v 6.85211 h 3.109442 v -2.10761 h 3.137796 z"
       style="font-style:normal;font-variant:normal;font-weight:normal;font-stretch:normal;font-size:19.35604095px;line-height:1.25;font-family:'Rockwell Extra Bold';-inkscape-font-specification:'Rockwell Extra Bold, ';letter-spacing:0px;word-spacing:0px;fill:#000000;fill-opacity:1;stroke:#ffff00;stroke-width:0.71134466;stroke-linecap:round;stroke-linejoin:bevel;stroke-miterlimit:4;stroke-dasharray:none;stroke-opacity:1;paint-order:normal"
       id="path819" />
    <path
       d="m 61.824265,120.60261 -1.238106,3.63871 h 2.353347 z m -1.238106,9.81034 h -5.207607 v -3.14725 h 1.001827 l 2.466761,-6.85211 h -1.058534 v -3.14725 h 9.451192 v 3.14725 h -1.058534 l 2.514018,6.85211 h 0.964021 v 3.14725 h -6.861565 v -2.88261 h 1.153045 l -0.500913,-1.65396 h -3.364624 l -0.576523,1.65396 h 1.077436 z"
       style="font-style:normal;font-variant:normal;font-weight:normal;font-stretch:normal;font-size:19.35604095px;line-height:1.25;font-family:'Rockwell Extra Bold';-inkscape-font-specification:'Rockwell Extra Bold, ';letter-spacing:0px;word-spacing:0px;fill:#000000;fill-opacity:1;stroke:#ffff00;stroke-width:0.71134466;stroke-linecap:round;stroke-linejoin:bevel;stroke-miterlimit:4;stroke-dasharray:none;stroke-opacity:1;paint-order:normal"
       id="path821" />
    <path
       d="m 80.778629,124.61937 3.411881,1.2003 q -0.434755,2.10762 -1.994202,3.44968 -1.578349,1.35152 -4.347548,1.35152 -3.780477,0 -5.595106,-1.97529 -1.82408,-1.96585 -1.82408,-4.80121 0,-2.85426 1.786276,-4.84846 1.786275,-1.9942 4.640535,-1.9942 2.315542,0 3.771025,1.14359 v -0.87896 h 3.156698 v 4.80121 h -3.279563 q -0.255182,-0.89787 -0.860059,-1.41768 -0.604876,-0.51037 -1.379874,-0.51037 -2.135969,0 -2.135969,3.67652 0,3.68596 2.211579,3.68596 1.937494,0 2.438407,-2.88261 z"
       style="font-style:normal;font-variant:normal;font-weight:normal;font-stretch:normal;font-size:19.35604095px;line-height:1.25;font-family:'Rockwell Extra Bold';-inkscape-font-specification:'Rockwell Extra Bold, ';letter-spacing:0px;word-spacing:0px;fill:#000000;fill-opacity:1;stroke:#ffff00;stroke-width:0.71134466;stroke-linecap:round;stroke-linejoin:bevel;stroke-miterlimit:4;stroke-dasharray:none;stroke-opacity:1;paint-order:normal"
       id="path823" />
    <path
       d="m 101.21683,130.41295 h -6.804857 v -3.14725 h 0.63323 l -2.882614,-3.74267 3.345722,-3.10944 h -1.067985 v -3.14725 h 6.474064 v 3.14725 h -1.020726 l -2.684138,2.49511 3.355174,4.357 h 0.65213 z m -8.17528,0 h -7.126199 v -3.14725 h 1.001827 v -6.85211 h -1.03018 v -3.14725 h 7.154552 v 3.14725 h -1.039631 v 6.85211 h 1.039631 z"
       style="font-style:normal;font-variant:normal;font-weight:normal;font-stretch:normal;font-size:19.35604095px;line-height:1.25;font-family:'Rockwell Extra Bold';-inkscape-font-specification:'Rockwell Extra Bold, ';letter-spacing:0px;word-spacing:0px;fill:#000000;fill-opacity:1;stroke:#ffff00;stroke-width:0.71134466;stroke-linecap:round;stroke-linejoin:bevel;stroke-miterlimit:4;stroke-dasharray:none;stroke-opacity:1;paint-order:normal"
       id="path825" />
    <path
       d="m 101.93512,134.29739 v -3.22286 q 0.30244,0.0756 0.55762,0.0756 0.60488,0 0.775,-0.41585 0.16067,-0.4253 0.16067,-2.03201 v -8.28869 h -1.20975 v -3.14725 h 7.41918 v 3.14725 h -1.12469 v 7.70272 q 0,2.14542 -0.11341,3.02438 -0.11342,0.88841 -0.65214,1.69176 -0.55762,0.81281 -1.43658,1.21921 -0.87896,0.4064 -2.4384,0.4064 -0.89787,0 -1.9375,-0.16067 z"
       style="font-style:normal;font-variant:normal;font-weight:normal;font-stretch:normal;font-size:19.35604095px;line-height:1.25;font-family:'Rockwell Extra Bold';-inkscape-font-specification:'Rockwell Extra Bold, ';letter-spacing:0px;word-spacing:0px;fill:#000000;fill-opacity:1;stroke:#ffff00;stroke-width:0.71134466;stroke-linecap:round;stroke-linejoin:bevel;stroke-miterlimit:4;stroke-dasharray:none;stroke-opacity:1;paint-order:normal"
       id="path827" />
    <path
       d="m 116.90581,120.60261 -1.2381,3.63871 h 2.35334 z m -1.2381,9.81034 h -5.20761 v -3.14725 h 1.00183 l 2.46676,-6.85211 h -1.05854 v -3.14725 h 9.45119 v 3.14725 h -1.05853 l 2.51402,6.85211 h 0.96402 v 3.14725 h -6.86157 v -2.88261 h 1.15305 l -0.50091,-1.65396 h -3.36463 l -0.57652,1.65396 h 1.07744 z"
       style="font-style:normal;font-variant:normal;font-weight:normal;font-stretch:normal;font-size:19.35604095px;line-height:1.25;font-family:'Rockwell Extra Bold';-inkscape-font-specification:'Rockwell Extra Bold, ';letter-spacing:0px;word-spacing:0px;fill:#000000;fill-opacity:1;stroke:#ffff00;stroke-width:0.71134466;stroke-linecap:round;stroke-linejoin:bevel;stroke-miterlimit:4;stroke-dasharray:none;stroke-opacity:1;paint-order:normal"
       id="path829" />
    <path
       d="m 135.86018,124.61937 3.41188,1.2003 q -0.43476,2.10762 -1.99421,3.44968 -1.57834,1.35152 -4.34754,1.35152 -3.78048,0 -5.59511,-1.97529 -1.82408,-1.96585 -1.82408,-4.80121 0,-2.85426 1.78628,-4.84846 1.78627,-1.9942 4.64053,-1.9942 2.31554,0 3.77103,1.14359 v -0.87896 h 3.1567 v 4.80121 h -3.27957 q -0.25518,-0.89787 -0.86006,-1.41768 -0.60487,-0.51037 -1.37987,-0.51037 -2.13597,0 -2.13597,3.67652 0,3.68596 2.21158,3.68596 1.93749,0 2.43841,-2.88261 z"
       style="font-style:normal;font-variant:normal;font-weight:normal;font-stretch:normal;font-size:19.35604095px;line-height:1.25;font-family:'Rockwell Extra Bold';-inkscape-font-specification:'Rockwell Extra Bold, ';letter-spacing:0px;word-spacing:0px;fill:#000000;fill-opacity:1;stroke:#ffff00;stroke-width:0.71134466;stroke-linecap:round;stroke-linejoin:bevel;stroke-miterlimit:4;stroke-dasharray:none;stroke-opacity:1;paint-order:normal"
       id="path831" />
    <path
       d="m 156.29838,130.41295 h -6.80486 v -3.14725 h 0.63323 l -2.88261,-3.74267 3.34572,-3.10944 h -1.06798 v -3.14725 h 6.47406 v 3.14725 h -1.02073 l -2.68413,2.49511 3.35517,4.357 h 0.65213 z m -8.17528,0 h -7.1262 v -3.14725 h 1.00183 v -6.85211 h -1.03018 v -3.14725 h 7.15455 v 3.14725 h -1.03963 v 6.85211 h 1.03963 z"
       style="font-style:normal;font-variant:normal;font-weight:normal;font-stretch:normal;font-size:19.35604095px;line-height:1.25;font-family:'Rockwell Extra Bold';-inkscape-font-specification:'Rockwell Extra Bold, ';letter-spacing:0px;word-spacing:0px;fill:#000000;fill-opacity:1;stroke:#ffff00;stroke-width:0.71134466;stroke-linecap:round;stroke-linejoin:bevel;stroke-miterlimit:4;stroke-dasharray:none;stroke-opacity:1;paint-order:normal"
       id="path833" />
  </g>
</svg>
